<svg width="1824" height="1205" xmlns="http://www.w3.org/2000/svg" xmlns:xlink="http://www.w3.org/1999/xlink" xml:space="preserve" overflow="hidden"><defs><clipPath id="clip0"><rect x="1150" y="885" width="1824" height="1205"/></clipPath><clipPath id="clip1"><rect x="2517" y="1369" width="409" height="409"/></clipPath><clipPath id="clip2"><rect x="2517" y="1369" width="409" height="409"/></clipPath><clipPath id="clip3"><rect x="2517" y="1369" width="409" height="409"/></clipPath><clipPath id="clip4"><rect x="2317" y="1325" width="54" height="55"/></clipPath><clipPath id="clip5"><rect x="2317" y="1325" width="54" height="55"/></clipPath><clipPath id="clip6"><rect x="2317" y="1325" width="54" height="55"/></clipPath><clipPath id="clip7"><rect x="2279" y="1457" width="45" height="45"/></clipPath><clipPath id="clip8"><rect x="2279" y="1457" width="45" height="45"/></clipPath><clipPath id="clip9"><rect x="2279" y="1457" width="45" height="45"/></clipPath><clipPath id="clip10"><rect x="1354" y="1328" width="45" height="45"/></clipPath><clipPath id="clip11"><rect x="1354" y="1328" width="45" height="45"/></clipPath><clipPath id="clip12"><rect x="1354" y="1328" width="45" height="45"/></clipPath></defs><g clip-path="url(#clip0)" transform="translate(-1150 -885)"><rect x="1167.5" y="894.5" width="1804" height="1193" stroke="#000000" stroke-width="4.58333" stroke-miterlimit="8" fill="#FFFFFF"/><text font-family="Arial,Arial_MSFontService,sans-serif" font-weight="400" font-size="83" transform="matrix(1 0 0 1 1200.23 990)">eNotary<tspan font-size="46" x="0" y="64">Conceptual Flow</tspan></text><g clip-path="url(#clip1)"><g clip-path="url(#clip2)"><g clip-path="url(#clip3)"><path d="M335.75 289.251 335.75 172.125C335.749 170.738 335.072 169.439 333.935 168.644L316.51 156.447C316.494 156.429 316.494 156.401 316.51 156.383L334.785 134.474C335.945 133.084 336.096 131.113 335.164 129.561L324.139 111.189C324.129 111.173 324.129 111.153 324.139 111.138L334.518 100.755C335.31 99.9558 335.753 98.8754 335.75 97.75L335.75 78.625C335.75 56.3265 317.673 38.25 295.375 38.25L78.625 38.25C56.4413 38.1747 38.3811 56.0673 38.25 78.251 38.2588 90.5127 43.917 102.087 53.5883 109.625 58.2556 112.924 63.8184 114.721 69.5343 114.776 70.2695 114.776 70.9963 114.708 71.723 114.644 71.8964 114.69 72.0724 114.725 72.25 114.75L110.5 114.75 110.5 227.375C110.5 228.502 110.948 229.583 111.745 230.38L127.836 246.47 127.836 246.53 109.62 264.745C108.823 265.542 108.375 266.623 108.375 267.75L108.375 325.125C108.375 347.423 126.452 365.5 148.75 365.5L330.327 365.5C350.162 365.747 367.027 351.076 369.529 331.398 371.785 310.447 356.689 291.611 335.75 289.251ZM88.4638 106.25C91.6717 102.566 93.4575 97.8575 93.5 92.973 93.5765 81.4109 84.2656 71.9759 72.7035 71.8994 72.5522 71.8985 72.4013 71.8994 72.25 71.9015 69.9027 71.9015 68 73.8042 68 76.1515 68 78.4988 69.9027 80.4015 72.25 80.4015 79.166 80.277 84.8738 85.7829 84.9979 92.6989 84.9996 92.7903 85.0004 92.8816 85 92.973 84.7943 97.8478 81.9069 102.208 77.4988 104.299 71.4285 107.364 64.155 106.786 58.6458 102.799 51.1288 96.8711 46.7449 87.8241 46.75 78.251 46.8533 60.6471 61.2081 46.4597 78.812 46.563 96.4159 46.6663 110.603 61.0211 110.5 78.625L110.5 106.25ZM116.875 325.125 116.875 269.51 136.88 249.505C138.539 247.845 138.539 245.155 136.88 243.495L119 225.616 119 78.625C119.001 66.1976 113.271 54.4638 103.471 46.8223 103.454 46.8057 103.454 46.7789 103.471 46.7623 103.477 46.7555 103.486 46.7509 103.496 46.75L295.375 46.75C312.979 46.75 327.25 61.0211 327.25 78.625L327.25 95.9905 315.745 107.495C314.366 108.875 314.103 111.016 315.108 112.689L326.302 131.346 306.986 154.526C305.488 156.333 305.738 159.012 307.545 160.51 307.639 160.588 307.736 160.661 307.836 160.731L327.25 174.339 327.25 289 161.5 289.047C156.836 288.757 152.182 289.753 148.045 291.924 140.836 295.48 136.197 302.742 136 310.777 135.924 322.339 145.234 331.774 156.797 331.851 156.948 331.852 157.099 331.851 157.25 331.849 159.597 331.849 161.5 329.946 161.5 327.599 161.5 325.251 159.597 323.349 157.25 323.349 150.334 323.473 144.626 317.967 144.502 311.051 144.5 310.96 144.5 310.868 144.5 310.777 144.706 305.902 147.593 301.542 152.001 299.451 158.071 296.38 165.347 296.959 170.854 300.951 178.371 306.879 182.755 315.926 182.75 325.499 182.626 342.991 168.367 357.082 150.875 357L148.75 357C131.146 357 116.875 342.729 116.875 325.125ZM330.463 357 175.789 357C175.769 357.007 175.747 356.997 175.74 356.977 175.732 356.957 175.743 356.935 175.763 356.928 193.116 343.603 196.381 318.734 183.056 301.382 182.007 300.015 180.87 298.719 179.652 297.5L331.5 297.5C347.952 297.52 361.273 310.872 361.253 327.324 361.252 328.609 361.167 329.894 360.999 331.169 358.695 346.194 345.662 357.218 330.463 357Z" fill="#1F4E79" transform="matrix(1 0 0 1.00245 2518 1369)"/><path d="M208.25 106.25 280.5 106.25 280.5 114.75 208.25 114.75Z" fill="#1F4E79" transform="matrix(1 0 0 1.00245 2518 1369)"/><path d="M165.75 106.25 191.25 106.25 191.25 114.75 165.75 114.75Z" fill="#1F4E79" transform="matrix(1 0 0 1.00245 2518 1369)"/><path d="M208.25 233.75 280.5 233.75 280.5 242.25 208.25 242.25Z" fill="#1F4E79" transform="matrix(1 0 0 1.00245 2518 1369)"/><path d="M165.75 233.75 191.25 233.75 191.25 242.25 165.75 242.25Z" fill="#1F4E79" transform="matrix(1 0 0 1.00245 2518 1369)"/><path d="M165.75 148.75 238 148.75 238 157.25 165.75 157.25Z" fill="#1F4E79" transform="matrix(1 0 0 1.00245 2518 1369)"/><path d="M255 148.75 280.5 148.75 280.5 157.25 255 157.25Z" fill="#1F4E79" transform="matrix(1 0 0 1.00245 2518 1369)"/><path d="M165.75 191.25 280.5 191.25 280.5 199.75 165.75 199.75Z" fill="#1F4E79" transform="matrix(1 0 0 1.00245 2518 1369)"/></g></g></g><rect x="2658" y="1426" width="159" height="61.0002" fill="#FFFFFF"/><text font-family="Arial,Arial_MSFontService,sans-serif" font-weight="400" font-size="50" transform="matrix(1 0 0 1 2659.21 1475)">Ledger</text><rect x="1863" y="1159" width="1063" height="598" stroke="#2F528F" stroke-width="10.3125" stroke-miterlimit="8" fill="none"/><text font-family="Arial,Arial_MSFontService,sans-serif" font-weight="400" font-size="83" transform="matrix(1 0 0 1 2321.36 1256)">SCITT Instance</text><path d="M1865.28 1848.5 2390.5 1848.5 2390.5 2056.5 1865.28 2056.5C1865.02 2047.92 1864.76 2039.34 1864.5 2030.76 1864.87 1995.18 1865.25 1959.59 1865.62 1924L1865.28 1848.5Z" stroke="#2F528F" stroke-width="4.58333" stroke-miterlimit="8" fill="none" fill-rule="evenodd"/><text font-family="Arial,Arial_MSFontService,sans-serif" font-weight="400" font-size="64" transform="matrix(1 0 0 1 2014.87 1976)">Storage</text><path d="M0-5.15625 40.7301-5.15625 40.7301 306.722 30.4176 306.722 30.4176 0 35.5739 5.15625 0 5.15625ZM51.0426 301.566 35.5739 332.504 20.1051 301.566Z" fill="#4472C4" transform="matrix(1.83697e-16 1 1 -1.83697e-16 2269 1579)"/><rect x="1864.5" y="1309.5" width="526" height="228" stroke="#2F528F" stroke-width="4.58333" stroke-miterlimit="8" fill="none"/><text font-family="Arial,Arial_MSFontService,sans-serif" font-weight="400" font-size="64" transform="matrix(1 0 0 1 1897 1388)">eNotary</text><path d="M1820.5 1377.5 1863.5 1402.5 1820.5 1427.5Z" stroke="#2F528F" stroke-width="4.58333" stroke-miterlimit="8" fill="none" fill-rule="evenodd"/><path d="M2294.5 1536.5 2269.5 1579.5 2244.5 1536.5Z" stroke="#2F528F" stroke-width="4.58333" stroke-miterlimit="8" fill="none" fill-rule="evenodd"/><path d="M2065.16 1579 2065.16 1696.43 2060 1696.43 2065.16 1691.27 2065.16 1777.77 2054.84 1777.77 2054.84 1686.12 2060 1686.12 2054.84 1691.27 2054.84 1579ZM2075.47 1772.61 2060 1803.55 2044.53 1772.61Z" fill="#4472C4"/><path d="M2085.5 1804.5 2060.5 1847.5 2035.5 1804.5Z" stroke="#2F528F" stroke-width="4.58333" stroke-miterlimit="8" fill="none" fill-rule="evenodd"/><path d="M2085.5 1536.5 2060.5 1579.5 2035.5 1536.5Z" stroke="#2F528F" stroke-width="4.58333" stroke-miterlimit="8" fill="none" fill-rule="evenodd"/><path d="M1863.5 1546.5 1820.5 1522 1863.5 1497.5Z" stroke="#2F528F" stroke-width="4.58333" stroke-miterlimit="8" fill="none" fill-rule="evenodd"/><path d="M2602.5 1590.5 2645.5 1615.5 2602.5 1640.5Z" stroke="#2F528F" stroke-width="4.58333" stroke-miterlimit="8" fill="none" fill-rule="evenodd"/><g clip-path="url(#clip4)"><g clip-path="url(#clip5)"><g clip-path="url(#clip6)"><path d="M11.6533 50.2413 11.6533 45.514 11.6533 45.514 16.3806 45.514 16.3806 40.7867 21.1079 40.7867 21.1079 36.0594 27.924 38.2581 32.4864 33.6957C37.3237 34.4103 42.4357 32.8712 46.1736 29.1333 52.44 22.8669 52.44 12.6428 46.1736 6.37635 39.9072 0.109937 29.683 0.109937 23.4166 6.37635 19.4039 10.3891 17.9747 15.9959 19.0741 21.2179L0 40.3469 0 43.1503 1.0444 49.1969C3.68289 49.9115 8.95988 50.4062 11.6533 50.2413ZM37.7084 9.7844C39.1376 8.35522 41.4463 8.35522 42.8755 9.7844 44.3047 11.2136 44.3047 13.5223 42.8755 14.9515 41.4463 16.3806 39.1376 16.3806 37.7084 14.9515 36.2793 13.5223 36.2793 11.2136 37.7084 9.7844Z" fill="#262261" transform="matrix(1 0 0 1.01923 2318 1326)"/></g></g></g><rect x="1211.5" y="1579.5" width="187" height="242" stroke="#2F528F" stroke-width="4.58333" stroke-miterlimit="8" fill="none"/><text font-family="Arial,Arial_MSFontService,sans-serif" font-weight="400" font-size="50" transform="matrix(1 0 0 1 1228.95 1645)">receipt</text><rect x="1207.5" y="1325.5" width="195" height="95.9999" stroke="#2F528F" stroke-width="4.58333" stroke-miterlimit="8" fill="none"/><text font-family="Arial,Arial_MSFontService,sans-serif" font-weight="400" font-size="50" transform="matrix(1 0 0 1 1225.8 1391)">Claim<tspan fill="#FFFFFF" font-size="50" x="129.479" y="0">_</tspan></text><rect x="1207.5" y="1428.5" width="195" height="95.9999" stroke="#2F528F" stroke-width="4.58333" stroke-miterlimit="8" fill="none"/><text font-family="Arial,Arial_MSFontService,sans-serif" font-weight="400" font-size="41" transform="matrix(1 0 0 1 1219.79 1485)">Evidence</text><path d="M0-5.15625 216.019-5.15625 216.019 178.362 210.863 173.205 395.944 173.205 395.944 183.518 205.706 183.518 205.706 0 210.863 5.15625 0 5.15625ZM390.788 162.893 421.725 178.362 390.788 193.83Z" fill="#4472C4" transform="matrix(-1 1.22465e-16 1.22465e-16 1 1819.73 1522)"/><path d="M1863 1400.85 2270.4 1400.85 2270.4 1512.99 2268.11 1512.99 2268.11 1402 2269.26 1403.15 1863 1403.15ZM2283.01 1508.41 2269.26 1535.91 2255.51 1508.41Z" fill="#4472C4"/><path d="M1820.5 1441.5 1863.5 1466.5 1820.5 1491.5Z" stroke="#2F528F" stroke-width="4.58333" stroke-miterlimit="8" fill="none" fill-rule="evenodd"/><path d="M1402 1367.84 1616.17 1367.84 1616.17 1401.99 1611.02 1396.83 1794.26 1396.83 1794.26 1407.14 1605.86 1407.14 1605.86 1373 1611.02 1378.16 1402 1378.16ZM1789.1 1386.52 1820.04 1401.99 1789.1 1417.45Z" fill="#4472C4"/><path d="M0-5.15625 214.174-5.15625 214.174 10.4532 209.018 5.297 392.255 5.297 392.255 15.6095 203.862 15.6095 203.862 0 209.018 5.15625 0 5.15625ZM387.099-5.0155 418.036 10.4532 387.099 25.922Z" fill="#4472C4" transform="matrix(1 0 0 -1 1402 1476.45)"/><path d="M1863 1464.85 2060.84 1464.85 2060.84 1513.4 2058.55 1513.4 2058.55 1466 2059.7 1467.15 1863 1467.15ZM2073.45 1508.81 2059.7 1536.31 2045.95 1508.81Z" fill="#4472C4"/><g clip-path="url(#clip7)"><g clip-path="url(#clip8)"><g clip-path="url(#clip9)"><path d="M27.6744 22.8837 24.186 19.814 13.1163 33.4419 16.6512 36.4651Z" fill="#262261" transform="matrix(1 0 0 1.02272 2279 1457)"/><path d="M13.3953 37.3488 11.5349 35.8605 10.5116 40.3721 14.6977 38.4651Z" fill="#262261" transform="matrix(1 0 0 1.02272 2279 1457)"/><path d="M38.4651 2.23256 42 5.25581 43.8605 2.97674 40.2326 0.0465116Z" fill="#262261" transform="matrix(1 0 0 1.02272 2279 1457)"/><path d="M31.5349 22.2326 33.7209 24 39.2558 17.2093C41.1163 15.0698 42 12.3721 41.5814 10.1395 41.3954 9.11628 40.9302 8.23256 40.2791 7.48837L36.7442 4.4186 25.907 17.6744 29.4419 20.7442 38.4186 9.67442C38.6047 9.95349 38.7442 10.2791 38.7907 10.6512 39.0698 12.0465 38.3721 13.907 37.1163 15.3953L31.5349 22.2326Z" fill="#262261" transform="matrix(1 0 0 1.02272 2279 1457)"/><path d="M2.37209 36.3256C2.46512 36.093 2.55814 35.8605 2.69767 35.6279 2.97674 35.1628 3.30233 34.7907 3.72093 34.4186 4.51163 33.6744 5.53488 33.0698 6.60465 32.5116 7.67442 31.9535 8.7907 31.4419 9.95349 30.8837 10.5116 30.6047 11.1163 30.2791 11.7209 29.8605 12.0465 29.6744 12.3256 29.4419 12.6512 29.1163 12.9767 28.7907 13.3023 28.4186 13.4884 27.814 13.7209 27.2558 13.6744 26.5116 13.4884 26 13.3023 25.4419 12.9302 25.0233 12.6047 24.6977 11.907 24.093 11.2558 23.7674 10.6512 23.4419 9.44186 22.8372 8.27907 22.4651 7.2093 21.9535 6.18605 21.4419 5.30233 20.8837 4.7907 20.1395 4.27907 19.4419 4.09302 18.5116 4.23256 17.4884 4.37209 16.4186 4.69767 15.3953 5.25581 14.5116 6.4186 12.7442 8.60465 11.5814 10.9302 10.9302 12.093 10.6047 13.3023 10.3721 14.5581 10.2326 15.1628 10.1395 15.814 10.093 16.4186 10.0465 17.0233 10 17.6744 9.95349 18.3256 9.95349 15.814 9.30233 13.2093 9.16279 10.6047 9.48837 9.30233 9.67442 8 10 6.74419 10.5581 5.48837 11.1163 4.32558 11.9535 3.39535 13.1163 2.93023 13.6744 2.55814 14.3256 2.27907 14.9767 2 15.6744 1.81395 16.3256 1.67442 17.0698 1.53488 17.814 1.53488 18.5581 1.62791 19.3488 1.76744 20.1395 2.04651 20.9302 2.51163 21.6279 2.97674 22.3256 3.53488 22.8372 4.13953 23.3023 4.74419 23.7674 5.34884 24.093 5.95349 24.4186 7.16279 25.0233 8.37209 25.4884 9.44186 25.9535 9.95349 26.186 10.4186 26.4651 10.6977 26.6977 10.8372 26.7907 10.8837 26.8837 10.8837 26.9302 10.8837 26.9767 10.8837 26.9302 10.8837 26.9302 10.8837 26.9302 10.8372 27.0698 10.6977 27.2093 10.5581 27.3488 10.3721 27.4884 10.186 27.6744 9.76744 28 9.25581 28.2791 8.74419 28.6047 7.67442 29.2093 6.55814 29.814 5.44186 30.4651 4.32558 31.1628 3.2093 31.9535 2.27907 33.0233 1.81395 33.5349 1.39535 34.186 1.11628 34.8372 0.976744 35.1628 0.837209 35.5349 0.790698 35.907 0.697674 36.2791 0.697674 36.6047 0.651163 36.9302 0.604651 37.6279 0.604651 38.3256 0.837209 39.0698 1.02326 39.7674 1.44186 40.4651 2.04651 40.9302 2.65116 41.3954 3.34884 41.6279 4 41.7209 4.69767 41.814 5.34884 41.814 6 41.7209 7.30233 41.5814 8.51163 41.2093 9.67442 40.7442 8.4186 40.9767 7.16279 41.1163 5.95349 41.0698 5.34884 41.0233 4.74419 40.9767 4.18605 40.7907 3.62791 40.6512 3.11628 40.3721 2.7907 40 2.09302 39.3023 2 38.186 2.23256 37.0698 2.23256 36.8837 2.32558 36.5581 2.37209 36.3256Z" fill="#262261" transform="matrix(1 0 0 1.02272 2279 1457)"/></g></g></g><rect x="2148" y="1397" width="101" height="16.9999" fill="#FFFFFF"/><path d="M2157.65 1343.11 2157.65 1380.23C2157.65 1381.01 2157.95 1381.75 2158.5 1382.29L2162.97 1386.78 2157.77 1392.01C2157.23 1392.55 2156.92 1393.29 2156.92 1394.06L2156.92 1413.72C2156.93 1422.15 2163.74 1428.99 2172.15 1429L2234.49 1429C2242.49 1429.01 2248.99 1422.5 2249 1414.46 2249.01 1407.53 2244.15 1401.56 2237.39 1400.18L2237.39 1361.31C2237.39 1360.36 2236.93 1359.47 2236.15 1358.92L2231.48 1355.65 2236.72 1349.34C2237.5 1348.39 2237.61 1347.04 2236.97 1345.98L2233.78 1340.65 2236.53 1337.89C2237.08 1337.34 2237.38 1336.61 2237.39 1335.84L2237.39 1329.29C2237.38 1320.85 2230.57 1314.01 2222.16 1314L2148.22 1314C2139.85 1313.97 2133.04 1320.76 2133 1329.16 2133 1333.77 2135.1 1338.12 2138.7 1340.98 2138.75 1341.02 2138.8 1341.06 2138.86 1341.1 2140.69 1342.4 2142.88 1343.11 2145.12 1343.13ZM2154.12 1337.29C2154.53 1336.31 2154.74 1335.26 2154.75 1334.2 2154.78 1329.44 2150.97 1325.56 2146.23 1325.52 2146.17 1325.52 2146.11 1325.52 2146.05 1325.52 2144.45 1325.52 2143.15 1326.83 2143.15 1328.44 2143.15 1330.04 2144.45 1331.35 2146.05 1331.35 2147.6 1331.3 2148.9 1332.52 2148.95 1334.07 2148.95 1334.12 2148.95 1334.16 2148.95 1334.2 2148.88 1335.33 2148.19 1336.32 2147.16 1336.79 2145.57 1337.58 2143.67 1337.41 2142.24 1336.36 2140.06 1334.61 2138.8 1331.96 2138.8 1329.16 2138.83 1323.93 2143.08 1319.72 2148.29 1319.76 2153.49 1319.79 2157.68 1324.06 2157.65 1329.29L2157.65 1337.29ZM2176.49 1399.9C2174.67 1399.82 2172.85 1400.21 2171.23 1401.06 2168.29 1402.52 2166.41 1405.51 2166.35 1408.8 2166.31 1413.56 2170.12 1417.44 2174.86 1417.48 2174.92 1417.48 2174.98 1417.48 2175.04 1417.48 2176.65 1417.48 2177.94 1416.17 2177.94 1414.56 2177.94 1412.96 2176.65 1411.65 2175.04 1411.65 2173.49 1411.7 2172.2 1410.48 2172.15 1408.93 2172.15 1408.88 2172.14 1408.84 2172.15 1408.8 2172.22 1407.67 2172.9 1406.68 2173.93 1406.21 2175.53 1405.43 2177.42 1405.59 2178.86 1406.65 2181.03 1408.4 2182.29 1411.05 2182.29 1413.84 2182.25 1419.03 2178.04 1423.21 2172.87 1423.18L2172.15 1423.18C2166.94 1423.17 2162.73 1418.94 2162.72 1413.72L2162.72 1395.27 2169.12 1388.84C2170.25 1387.71 2170.25 1385.86 2169.12 1384.73L2163.45 1379.03 2163.45 1329.29C2163.45 1325.85 2162.3 1322.52 2160.17 1319.82L2222.16 1319.82C2227.37 1319.83 2231.58 1324.06 2231.59 1329.29L2231.59 1334.63 2228.09 1338.14C2227.15 1339.09 2226.97 1340.56 2227.65 1341.7L2230.94 1347.21 2225.01 1354.35C2223.98 1355.59 2224.15 1357.42 2225.38 1358.45 2225.44 1358.5 2225.51 1358.55 2225.58 1358.6L2231.59 1362.83 2231.59 1399.89ZM2234.49 1423.18 2184.84 1423.18C2188.83 1418.15 2189.18 1411.12 2185.71 1405.71L2234.49 1405.71C2239.29 1405.71 2243.19 1409.62 2243.19 1414.44 2243.19 1419.27 2239.29 1423.18 2234.49 1423.18Z" fill-rule="evenodd"/><path d="M2176 1379 2188 1379 2188 1390 2176 1390Z" fill-rule="evenodd"/><path d="M2197 1337 2221 1337 2221 1342 2197 1342Z" fill-rule="evenodd"/><path d="M2197 1383 2221 1383 2221 1389 2197 1389Z" fill-rule="evenodd"/><path d="M2197 1360 2221 1360 2221 1366 2197 1366Z" fill-rule="evenodd"/><path d="M2194 1333.13 2189.84 1329 2180.03 1338.74 2176.16 1334.9 2172 1339.03 2180.03 1347Z" fill-rule="evenodd"/><path d="M2194 1356.9 2189.84 1353 2180.03 1362.2 2176.16 1358.57 2172 1362.48 2180.03 1370Z" fill-rule="evenodd"/><text font-family="Arial,Arial_MSFontService,sans-serif" font-weight="400" font-size="41" transform="matrix(1 0 0 1 2141.72 1466)">Policy</text><path d="M22.115 6.25142 31.8011 9.79093 30.6212 13.0196 20.9352 9.4801ZM35.0297 10.9708 44.7158 14.5103 43.536 17.7389 33.8499 14.1994ZM47.9445 15.6901 57.6305 19.2296 56.4507 22.4583 46.7646 18.9188ZM60.8592 20.4094 70.5453 23.9489 69.3654 27.1776 59.6794 23.6381ZM73.7739 25.1288 83.46 28.6683 82.2802 31.897 72.5941 28.3575ZM86.6887 29.8481 96.3747 33.3876 95.1949 36.6163 85.5089 33.0768ZM99.6034 34.5674 109.289 38.107 108.11 41.3356 98.4236 37.7961ZM112.518 39.2868 122.204 42.8263 121.024 46.055 111.338 42.5155ZM125.433 44.0061 135.119 47.5456 133.939 50.7743 124.253 47.2348ZM138.348 48.7255 148.034 52.265 146.854 55.4936 137.168 51.9541ZM151.262 53.4448 160.948 56.9843 159.769 60.213 150.082 56.6735ZM164.177 58.1641 173.863 61.7036 172.683 64.9323 162.997 61.3928ZM177.092 62.8835 186.778 66.423 185.598 69.6517 175.912 66.1122ZM190.007 67.6028 199.693 71.1423 198.513 74.371 188.827 70.8315ZM202.921 72.3222 212.607 75.8617 211.427 79.0903 201.741 75.5508ZM215.836 77.0415 225.522 80.581 224.342 83.8097 214.656 80.2702ZM228.751 81.7608 238.437 85.3003 237.257 88.529 227.571 84.9895ZM241.665 86.4802 251.352 90.0197 250.172 93.2484 240.486 89.7089ZM254.58 91.1995 264.266 94.739 263.086 97.9677 253.4 94.4282ZM267.495 95.9189 277.181 99.4584 276.001 102.687 266.315 99.1475ZM280.41 100.638 290.096 104.178 288.916 107.406 279.23 103.867ZM293.324 105.358 303.01 108.897 301.831 112.126 292.145 108.586ZM306.239 110.077 315.925 113.616 314.745 116.845 305.059 113.306ZM319.154 114.796 328.84 118.336 327.66 121.564 317.974 118.025ZM332.069 119.516 341.755 123.055 340.575 126.284 330.889 122.744ZM344.983 124.235 354.669 127.774 353.49 131.003 343.803 127.464ZM357.898 128.954 367.584 132.494 366.404 135.722 356.718 132.183ZM370.813 133.674 380.499 137.213 379.319 140.442 369.633 136.902ZM383.728 138.393 393.414 141.932 392.234 145.161 382.548 141.622ZM396.642 143.112 406.328 146.652 405.148 149.88 395.462 146.341ZM409.557 147.832 419.243 151.371 418.063 154.6 408.377 151.06ZM422.472 152.551 432.158 156.09 430.978 159.319 421.292 155.78ZM435.386 157.27 445.072 160.81 443.893 164.038 434.207 160.499ZM448.301 161.99 457.987 165.529 456.807 168.758 447.121 165.218ZM461.216 166.709 470.902 170.248 469.722 173.477 460.036 169.938ZM474.131 171.428 483.817 174.968 482.637 178.196 472.951 174.657ZM487.045 176.148 496.731 179.687 495.552 182.916 485.866 179.376ZM499.96 180.867 509.646 184.406 508.466 187.635 498.78 184.096ZM512.875 185.586 517.731 187.361 516.551 190.59 511.695 188.815ZM21.1101 22.3534 0 0 30.5488-3.47605Z" fill="#4472C4" transform="matrix(1 0 0 -1 2085.5 1804.48)"/><path d="M1515 1424.5C1515 1403.79 1531.57 1387 1552 1387 1572.43 1387 1589 1403.79 1589 1424.5 1589 1445.21 1572.43 1462 1552 1462 1531.57 1462 1515 1445.21 1515 1424.5Z" fill="#FF0000" fill-rule="evenodd"/><text fill="#FFFFFF" font-family="Arial,Arial_MSFontService,sans-serif" font-weight="400" font-size="55" transform="matrix(1 0 0 1 1536.91 1444)">1</text><path d="M2156 1263C2156 1242.57 2172.79 1226 2193.5 1226 2214.21 1226 2231 1242.57 2231 1263 2231 1283.43 2214.21 1300 2193.5 1300 2172.79 1300 2156 1283.43 2156 1263Z" fill="#FF0000" fill-rule="evenodd"/><text fill="#FFFFFF" font-family="Arial,Arial_MSFontService,sans-serif" font-weight="400" font-size="55" transform="matrix(1 0 0 1 2178.07 1283)">2</text><path d="M2044.5 1264.5 2019.5 1306.5 1994.5 1264.5Z" stroke="#2F528F" stroke-width="4.58333" stroke-miterlimit="8" fill="none" fill-rule="evenodd"/><path d="M2013.84 1263.43 2013.84 1167.06 2019.2 1167.06 2014.04 1172.22 2014.04 1106.78 2024.36 1106.78 2024.36 1177.37 2019 1177.37 2024.16 1172.22 2024.16 1263.43ZM2003.73 1111.94 2019.2 1081 2034.67 1111.94Z" fill="#4472C4"/><path d="M1892.49 968.741C1888.88 953.257 1907.45 938.998 1933.97 936.892 1944.72 936.039 1955.64 937.315 1965 940.515 1974.91 929.603 1998.08 925.456 2016.75 931.252 2020.01 932.266 2023.01 933.551 2025.64 935.066 2033.36 926.021 2052.17 922.346 2067.65 926.858 2071.94 928.107 2075.68 929.913 2078.58 932.138 2091.03 923.584 2113.02 922.527 2127.7 929.778 2133.87 932.825 2138.03 937.028 2139.47 941.667 2159.86 944.916 2171.89 957.222 2166.34 969.154 2165.87 970.157 2165.29 971.14 2164.59 972.096 2180.94 984.529 2176.94 1002.35 2155.64 1011.9 2149.01 1014.87 2141.19 1016.8 2132.91 1017.49 2132.73 1030.86 2113.99 1041.62 2091.07 1041.51 2083.41 1041.48 2075.91 1040.2 2069.42 1037.84 2061.66 1052.83 2034.61 1061.31 2009 1056.77 1998.27 1054.87 1989 1050.84 1982.76 1045.38 1956.54 1054.62 1922.5 1049.65 1906.74 1034.29 1906.54 1034.09 1906.35 1033.9 1906.16 1033.7 1888.99 1034.87 1873.45 1027.72 1871.43 1017.73 1870.36 1012.4 1873.37 1007.07 1879.67 1003.16 1864.81 998.047 1859.82 986.835 1868.52 978.112 1873.54 973.08 1882.34 969.753 1892.22 969.155Z" fill="#4472C4" fill-rule="evenodd"/><path d="M2023.92 1080.95C2023.92 1082.99 2022.27 1084.65 2020.23 1084.65 2018.19 1084.65 2016.53 1082.99 2016.53 1080.95 2016.53 1078.91 2018.19 1077.26 2020.23 1077.26 2022.27 1077.26 2023.92 1078.91 2023.92 1080.95Z" fill="#4472C4" fill-rule="evenodd"/><path d="M2027.57 1075.6C2027.57 1079.68 2024.27 1082.99 2020.19 1082.99 2016.1 1082.99 2012.8 1079.68 2012.8 1075.6 2012.8 1071.52 2016.1 1068.21 2020.19 1068.21 2024.27 1068.21 2027.57 1071.52 2027.57 1075.6Z" fill="#4472C4" fill-rule="evenodd"/><path d="M2031.17 1062.85C2031.17 1068.98 2026.2 1073.94 2020.08 1073.94 2013.96 1073.94 2009 1068.98 2009 1062.85 2009 1056.73 2013.96 1051.77 2020.08 1051.77 2026.2 1051.77 2031.17 1056.73 2031.17 1062.85Z" fill="#4472C4" fill-rule="evenodd"/><path d="M1892.49 968.741C1888.88 953.257 1907.45 938.998 1933.97 936.892 1944.72 936.039 1955.64 937.315 1965 940.515 1974.91 929.603 1998.08 925.456 2016.75 931.252 2020.01 932.266 2023.01 933.551 2025.64 935.066 2033.36 926.021 2052.17 922.346 2067.65 926.858 2071.94 928.107 2075.68 929.913 2078.58 932.138 2091.03 923.584 2113.02 922.527 2127.7 929.778 2133.87 932.825 2138.03 937.028 2139.47 941.667 2159.86 944.916 2171.89 957.222 2166.34 969.154 2165.87 970.157 2165.29 971.14 2164.59 972.096 2180.94 984.529 2176.94 1002.35 2155.64 1011.9 2149.01 1014.87 2141.19 1016.8 2132.91 1017.49 2132.73 1030.86 2113.99 1041.62 2091.07 1041.51 2083.41 1041.48 2075.91 1040.2 2069.42 1037.84 2061.66 1052.83 2034.61 1061.31 2009 1056.77 1998.27 1054.87 1989 1050.84 1982.76 1045.38 1956.54 1054.62 1922.5 1049.65 1906.74 1034.29 1906.54 1034.09 1906.35 1033.9 1906.16 1033.7 1888.99 1034.87 1873.45 1027.72 1871.43 1017.73 1870.36 1012.4 1873.37 1007.07 1879.67 1003.16 1864.81 998.047 1859.82 986.835 1868.52 978.112 1873.54 973.08 1882.34 969.753 1892.22 969.155Z" stroke="#2F528F" stroke-width="4.58333" stroke-miterlimit="8" fill="none" fill-rule="evenodd"/><path d="M2023.92 1080.95C2023.92 1082.99 2022.27 1084.65 2020.23 1084.65 2018.19 1084.65 2016.53 1082.99 2016.53 1080.95 2016.53 1078.91 2018.19 1077.26 2020.23 1077.26 2022.27 1077.26 2023.92 1078.91 2023.92 1080.95Z" stroke="#2F528F" stroke-width="4.58333" stroke-miterlimit="8" fill="none" fill-rule="evenodd"/><path d="M2027.57 1075.6C2027.57 1079.68 2024.27 1082.99 2020.19 1082.99 2016.1 1082.99 2012.8 1079.68 2012.8 1075.6 2012.8 1071.52 2016.1 1068.21 2020.19 1068.21 2024.27 1068.21 2027.57 1071.52 2027.57 1075.6Z" stroke="#2F528F" stroke-width="4.58333" stroke-miterlimit="8" fill="none" fill-rule="evenodd"/><path d="M2031.17 1062.85C2031.17 1068.98 2026.2 1073.94 2020.08 1073.94 2013.96 1073.94 2009 1068.98 2009 1062.85 2009 1056.73 2013.96 1051.77 2020.08 1051.77 2026.2 1051.77 2031.17 1056.73 2031.17 1062.85Z" stroke="#2F528F" stroke-width="4.58333" stroke-miterlimit="8" fill="none" fill-rule="evenodd"/><path d="M1898.18 1005.09C1891.83 1005.38 1885.49 1004.52 1880 1002.64M1914.21 1031.94C1911.66 1032.54 1908.99 1032.93 1906.26 1033.12M1982.74 1044.85C1980.83 1043.17 1979.22 1041.37 1977.95 1039.49M2071.36 1031.49C2071.08 1033.48 2070.44 1035.45 2069.45 1037.37M2109.41 995.168C2123.79 999.256 2132.87 1007.8 2132.74 1017.14M2164.44 971.77C2162.11 974.949 2158.55 977.768 2154.05 980.008M2139.51 941.205C2139.91 942.488 2140.09 943.791 2140.06 945.095M2073.16 936.667C2074.52 934.872 2076.31 933.201 2078.48 931.705M2023.38 939.031C2023.93 937.548 2024.8 936.111 2025.96 934.752M1964.96 940.484C1968.35 941.643 1971.48 943.037 1974.29 944.636M1894.12 973.109C1893.38 971.681 1892.83 970.221 1892.49 968.742" stroke="#2F528F" stroke-width="4.58333" stroke-miterlimit="8" fill="none" fill-rule="evenodd"/><path d="M1932 1199.5C1932 1178.79 1948.79 1162 1969.5 1162 1990.21 1162 2007 1178.79 2007 1199.5 2007 1220.21 1990.21 1237 1969.5 1237 1948.79 1237 1932 1220.21 1932 1199.5Z" fill="#FF0000" fill-rule="evenodd"/><text fill="#FFFFFF" font-family="Arial,Arial_MSFontService,sans-serif" font-weight="400" font-size="55" transform="matrix(1 0 0 1 1954.28 1219)">3</text><path d="M2069 1709C2069 1688.57 2085.79 1672 2106.5 1672 2127.21 1672 2144 1688.57 2144 1709 2144 1729.43 2127.21 1746 2106.5 1746 2085.79 1746 2069 1729.43 2069 1709Z" fill="#FF0000" fill-rule="evenodd"/><text fill="#FFFFFF" font-family="Arial,Arial_MSFontService,sans-serif" font-weight="400" font-size="55" transform="matrix(1 0 0 1 2091.17 1729)">4</text><path d="M2483 1566.5C2483 1545.79 2499.79 1529 2520.5 1529 2541.21 1529 2558 1545.79 2558 1566.5 2558 1587.21 2541.21 1604 2520.5 1604 2499.79 1604 2483 1587.21 2483 1566.5Z" fill="#FF0000" fill-rule="evenodd"/><text fill="#FFFFFF" font-family="Arial,Arial_MSFontService,sans-serif" font-weight="400" font-size="55" transform="matrix(1 0 0 1 2505.43 1587)">5</text><path d="M1728 1575.5C1728 1554.79 1744.79 1538 1765.5 1538 1786.21 1538 1803 1554.79 1803 1575.5 1803 1596.21 1786.21 1613 1765.5 1613 1744.79 1613 1728 1596.21 1728 1575.5Z" fill="#FF0000" fill-rule="evenodd"/><text fill="#FFFFFF" font-family="Arial,Arial_MSFontService,sans-serif" font-weight="400" font-size="55" transform="matrix(1 0 0 1 1750.24 1596)">6</text><g clip-path="url(#clip10)"><g clip-path="url(#clip11)"><g clip-path="url(#clip12)"><path d="M1381.67 1351.88 1378.19 1348.81 1367.12 1362.44 1370.65 1365.46Z" fill="#262261"/><path d="M1367.4 1366.35 1365.53 1364.86 1364.51 1369.37 1368.7 1367.46Z" fill="#262261"/><path d="M1392.47 1331.23 1396 1334.26 1397.86 1331.98 1394.23 1329.05Z" fill="#262261"/><path d="M1385.53 1351.23 1387.72 1353 1393.26 1346.21C1395.12 1344.07 1396 1341.37 1395.58 1339.14 1395.4 1338.12 1394.93 1337.23 1394.28 1336.49L1390.74 1333.42 1379.91 1346.67 1383.44 1349.74 1392.42 1338.67C1392.6 1338.95 1392.74 1339.28 1392.79 1339.65 1393.07 1341.05 1392.37 1342.91 1391.12 1344.4L1385.53 1351.23Z" fill="#262261"/><path d="M1356.37 1365.33C1356.47 1365.09 1356.56 1364.86 1356.7 1364.63 1356.98 1364.16 1357.3 1363.79 1357.72 1363.42 1358.51 1362.67 1359.53 1362.07 1360.6 1361.51 1361.67 1360.95 1362.79 1360.44 1363.95 1359.88 1364.51 1359.6 1365.12 1359.28 1365.72 1358.86 1366.05 1358.67 1366.33 1358.44 1366.65 1358.12 1366.98 1357.79 1367.3 1357.42 1367.49 1356.81 1367.72 1356.26 1367.67 1355.51 1367.49 1355 1367.3 1354.44 1366.93 1354.02 1366.6 1353.7 1365.91 1353.09 1365.26 1352.77 1364.65 1352.44 1363.44 1351.84 1362.28 1351.46 1361.21 1350.95 1360.19 1350.44 1359.3 1349.88 1358.79 1349.14 1358.28 1348.44 1358.09 1347.51 1358.23 1346.49 1358.37 1345.42 1358.7 1344.4 1359.26 1343.51 1360.42 1341.74 1362.6 1340.58 1364.93 1339.93 1366.09 1339.6 1367.3 1339.37 1368.56 1339.23 1369.16 1339.14 1369.81 1339.09 1370.42 1339.05 1371.02 1339 1371.67 1338.95 1372.33 1338.95 1369.81 1338.3 1367.21 1338.16 1364.6 1338.49 1363.3 1338.67 1362 1339 1360.74 1339.56 1359.49 1340.12 1358.33 1340.95 1357.4 1342.12 1356.93 1342.67 1356.56 1343.33 1356.28 1343.98 1356 1344.67 1355.81 1345.33 1355.67 1346.07 1355.53 1346.81 1355.53 1347.56 1355.63 1348.35 1355.77 1349.14 1356.05 1349.93 1356.51 1350.63 1356.98 1351.33 1357.53 1351.84 1358.14 1352.3 1358.74 1352.77 1359.35 1353.09 1359.95 1353.42 1361.16 1354.02 1362.37 1354.49 1363.44 1354.95 1363.95 1355.19 1364.42 1355.46 1364.7 1355.7 1364.84 1355.79 1364.88 1355.88 1364.88 1355.93 1364.88 1355.98 1364.88 1355.93 1364.88 1355.93 1364.88 1355.93 1364.84 1356.07 1364.7 1356.21 1364.56 1356.35 1364.37 1356.49 1364.19 1356.67 1363.77 1357 1363.26 1357.28 1362.74 1357.6 1361.67 1358.21 1360.56 1358.81 1359.44 1359.46 1358.33 1360.16 1357.21 1360.95 1356.28 1362.02 1355.81 1362.53 1355.4 1363.19 1355.12 1363.84 1354.98 1364.16 1354.84 1364.53 1354.79 1364.91 1354.7 1365.28 1354.7 1365.6 1354.65 1365.93 1354.6 1366.63 1354.6 1367.33 1354.84 1368.07 1355.02 1368.77 1355.44 1369.46 1356.05 1369.93 1356.65 1370.4 1357.35 1370.63 1358 1370.72 1358.7 1370.81 1359.35 1370.81 1360 1370.72 1361.3 1370.58 1362.51 1370.21 1363.67 1369.74 1362.42 1369.98 1361.16 1370.12 1359.95 1370.07 1359.35 1370.02 1358.74 1369.98 1358.19 1369.79 1357.63 1369.65 1357.12 1369.37 1356.79 1369 1356.09 1368.3 1356 1367.19 1356.23 1366.07 1356.23 1365.88 1356.33 1365.56 1356.37 1365.33Z" fill="#262261"/></g></g></g></g></svg>