<svg width="2195" height="1287" xmlns="http://www.w3.org/2000/svg" xmlns:xlink="http://www.w3.org/1999/xlink" xml:space="preserve" overflow="hidden"><defs><clipPath id="clip0"><rect x="1084" y="854" width="2195" height="1287"/></clipPath></defs><g clip-path="url(#clip0)" transform="translate(-1084 -854)"><rect x="1086.5" y="863.5" width="2190" height="1275" stroke="#2F528F" stroke-width="4.58333" stroke-miterlimit="8" fill="#FFFFFF"/><text font-family="Calibri,Calibri_MSFontService,sans-serif" font-weight="400" font-size="83" transform="matrix(1 0 0 1 1782.45 956)">SCITT Claims Promotion</text><path d="M2850.43 1433.58 2850.43 1342.32C2850.43 1341.24 2849.9 1340.22 2849.02 1339.6L2835.4 1330.1C2835.39 1330.09 2835.39 1330.06 2835.4 1330.05L2849.68 1312.98C2850.59 1311.9 2850.7 1310.36 2849.98 1309.15L2841.36 1294.83C2841.35 1294.82 2841.35 1294.81 2841.36 1294.79L2849.47 1286.7C2850.09 1286.08 2850.44 1285.24 2850.43 1284.36L2850.43 1269.46C2850.43 1252.09 2836.31 1238 2818.89 1238L2649.54 1238C2632.21 1237.94 2618.1 1251.88 2618 1269.17 2618.01 1278.72 2622.43 1287.74 2629.98 1293.62 2633.63 1296.19 2637.98 1297.59 2642.44 1297.63 2643.02 1297.63 2643.58 1297.58 2644.15 1297.53 2644.29 1297.56 2644.43 1297.59 2644.56 1297.61L2674.45 1297.61 2674.45 1385.37C2674.45 1386.25 2674.8 1387.09 2675.42 1387.71L2687.99 1400.25 2687.99 1400.29 2673.76 1414.49C2673.14 1415.11 2672.79 1415.95 2672.79 1416.83L2672.79 1461.54C2672.79 1478.91 2686.91 1493 2704.33 1493L2846.2 1493C2861.69 1493.19 2874.87 1481.76 2876.83 1466.42 2878.59 1450.1 2866.79 1435.42 2850.43 1433.58ZM2657.23 1290.99C2659.74 1288.12 2661.13 1284.45 2661.17 1280.64 2661.23 1271.63 2653.95 1264.28 2644.92 1264.22 2644.8 1264.22 2644.68 1264.22 2644.56 1264.22 2642.73 1264.22 2641.24 1265.7 2641.24 1267.53 2641.24 1269.36 2642.73 1270.85 2644.56 1270.85 2649.97 1270.75 2654.43 1275.04 2654.52 1280.43 2654.53 1280.5 2654.53 1280.57 2654.53 1280.64 2654.36 1284.44 2652.11 1287.84 2648.66 1289.47 2643.92 1291.85 2638.24 1291.4 2633.94 1288.3 2628.06 1283.68 2624.64 1276.63 2624.64 1269.17 2624.72 1255.45 2635.94 1244.4 2649.69 1244.48 2663.44 1244.56 2674.53 1255.74 2674.45 1269.46L2674.45 1290.99ZM2679.43 1461.54 2679.43 1418.2 2695.06 1402.61C2696.35 1401.32 2696.35 1399.22 2695.06 1397.93L2681.09 1384 2681.09 1269.46C2681.09 1259.78 2676.61 1250.63 2668.96 1244.68 2668.94 1244.67 2668.94 1244.65 2668.96 1244.63 2668.96 1244.63 2668.97 1244.62 2668.98 1244.62L2818.89 1244.62C2832.64 1244.62 2843.79 1255.74 2843.79 1269.46L2843.79 1282.99 2834.8 1291.96C2833.73 1293.03 2833.52 1294.7 2834.31 1296L2843.05 1310.54 2827.96 1328.6C2826.79 1330.01 2826.99 1332.1 2828.4 1333.27 2828.47 1333.33 2828.55 1333.38 2828.63 1333.44L2843.79 1344.04 2843.79 1433.39 2714.29 1433.42C2710.65 1433.2 2707.01 1433.97 2703.78 1435.67 2698.15 1438.44 2694.53 1444.1 2694.37 1450.36 2694.31 1459.37 2701.59 1466.72 2710.62 1466.78 2710.74 1466.78 2710.86 1466.78 2710.97 1466.78 2712.81 1466.78 2714.29 1465.29 2714.29 1463.46 2714.29 1461.64 2712.81 1460.15 2710.97 1460.15 2705.57 1460.25 2701.11 1455.96 2701.01 1450.57 2701.01 1450.5 2701.01 1450.43 2701.01 1450.36 2701.17 1446.56 2703.43 1443.16 2706.87 1441.53 2711.61 1439.14 2717.3 1439.59 2721.6 1442.7 2727.48 1447.32 2730.9 1454.37 2730.9 1461.83 2730.8 1475.46 2719.66 1486.44 2705.99 1486.37L2704.33 1486.37C2690.58 1486.37 2679.43 1475.25 2679.43 1461.54ZM2846.3 1486.37 2725.46 1486.37C2725.44 1486.38 2725.43 1486.37 2725.42 1486.36 2725.41 1486.34 2725.42 1486.32 2725.44 1486.32 2739 1475.94 2741.55 1456.56 2731.14 1443.04 2730.32 1441.97 2729.43 1440.96 2728.48 1440.01L2847.11 1440.01C2859.97 1440.03 2870.37 1450.43 2870.36 1463.25 2870.36 1464.25 2870.29 1465.25 2870.16 1466.25 2868.36 1477.95 2858.18 1486.54 2846.3 1486.37Z" fill-rule="evenodd"/><path d="M2751 1291 2807 1291 2807 1297 2751 1297Z" fill="#1F4E79" fill-rule="evenodd"/><path d="M2718 1291 2738 1291 2738 1297 2718 1297Z" fill="#1F4E79" fill-rule="evenodd"/><path d="M2751 1390 2807 1390 2807 1397 2751 1397Z" fill-rule="evenodd"/><path d="M2718 1390 2738 1390 2738 1397 2718 1397Z" fill-rule="evenodd"/><path d="M2718 1324 2774 1324 2774 1330 2718 1330Z" fill-rule="evenodd"/><path d="M2787 1324 2807 1324 2807 1330 2787 1330Z" fill-rule="evenodd"/><path d="M2718 1357 2807 1357 2807 1363 2718 1363Z" fill-rule="evenodd"/><rect x="2681" y="1252" width="158" height="61.0002" fill="#FFFFFF"/><text font-family="Arial,Arial_MSFontService,sans-serif" font-weight="400" font-size="50" transform="matrix(1 0 0 1 2681.46 1301)">Ledger</text><rect x="2394.5" y="1074.5" width="838" height="478" stroke="#000000" stroke-width="4.58333" stroke-miterlimit="8" fill="none"/><text font-family="Arial,Arial_MSFontService,sans-serif" font-weight="400" font-size="73" transform="matrix(1 0 0 1 2426.81 1161)">Internal team A</text><path d="M2850.43 1978.58 2850.43 1887.32C2850.43 1886.24 2849.9 1885.22 2849.02 1884.61L2835.4 1875.1C2835.39 1875.09 2835.39 1875.06 2835.4 1875.05L2849.68 1857.98C2850.59 1856.9 2850.7 1855.36 2849.98 1854.15L2841.36 1839.83C2841.35 1839.82 2841.35 1839.81 2841.36 1839.8L2849.47 1831.7C2850.09 1831.08 2850.44 1830.24 2850.43 1829.36L2850.43 1814.46C2850.43 1797.09 2836.31 1783 2818.89 1783L2649.54 1783C2632.21 1782.94 2618.1 1796.88 2618 1814.17 2618.01 1823.72 2622.43 1832.74 2629.98 1838.62 2633.63 1841.19 2637.98 1842.59 2642.44 1842.63 2643.02 1842.63 2643.58 1842.58 2644.15 1842.53 2644.29 1842.56 2644.43 1842.59 2644.56 1842.61L2674.45 1842.61 2674.45 1930.37C2674.45 1931.25 2674.8 1932.09 2675.42 1932.71L2687.99 1945.25 2687.99 1945.29 2673.76 1959.49C2673.14 1960.11 2672.79 1960.95 2672.79 1961.83L2672.79 2006.54C2672.79 2023.91 2686.91 2038 2704.33 2038L2846.2 2038C2861.69 2038.19 2874.87 2026.76 2876.83 2011.42 2878.59 1995.1 2866.79 1980.42 2850.43 1978.58ZM2657.23 1835.99C2659.74 1833.12 2661.13 1829.45 2661.17 1825.64 2661.23 1816.63 2653.95 1809.28 2644.92 1809.22 2644.8 1809.22 2644.68 1809.22 2644.56 1809.22 2642.73 1809.22 2641.24 1810.7 2641.24 1812.53 2641.24 1814.36 2642.73 1815.85 2644.56 1815.85 2649.97 1815.75 2654.43 1820.04 2654.52 1825.43 2654.53 1825.5 2654.53 1825.57 2654.53 1825.64 2654.36 1829.44 2652.11 1832.84 2648.66 1834.47 2643.92 1836.86 2638.24 1836.4 2633.94 1833.3 2628.06 1828.68 2624.64 1821.63 2624.64 1814.17 2624.72 1800.45 2635.94 1789.4 2649.69 1789.48 2663.44 1789.56 2674.53 1800.74 2674.45 1814.46L2674.45 1835.99ZM2679.43 2006.54 2679.43 1963.2 2695.06 1947.61C2696.35 1946.32 2696.35 1944.22 2695.06 1942.93L2681.09 1929 2681.09 1814.46C2681.09 1804.78 2676.61 1795.63 2668.96 1789.68 2668.94 1789.67 2668.94 1789.65 2668.96 1789.63 2668.96 1789.63 2668.97 1789.62 2668.98 1789.62L2818.89 1789.62C2832.64 1789.62 2843.79 1800.74 2843.79 1814.46L2843.79 1827.99 2834.8 1836.96C2833.73 1838.03 2833.52 1839.7 2834.31 1841L2843.05 1855.54 2827.96 1873.6C2826.79 1875.01 2826.99 1877.1 2828.4 1878.27 2828.47 1878.33 2828.55 1878.38 2828.63 1878.44L2843.79 1889.04 2843.79 1978.39 2714.29 1978.42C2710.65 1978.2 2707.01 1978.97 2703.78 1980.67 2698.15 1983.44 2694.53 1989.1 2694.37 1995.36 2694.31 2004.37 2701.59 2011.72 2710.62 2011.78 2710.74 2011.78 2710.86 2011.78 2710.97 2011.78 2712.81 2011.78 2714.29 2010.29 2714.29 2008.46 2714.29 2006.64 2712.81 2005.15 2710.97 2005.15 2705.57 2005.25 2701.11 2000.96 2701.01 1995.57 2701.01 1995.5 2701.01 1995.43 2701.01 1995.36 2701.17 1991.56 2703.43 1988.16 2706.87 1986.53 2711.61 1984.14 2717.3 1984.59 2721.6 1987.7 2727.48 1992.32 2730.9 1999.37 2730.9 2006.83 2730.8 2020.46 2719.66 2031.44 2705.99 2031.37L2704.33 2031.37C2690.58 2031.37 2679.43 2020.25 2679.43 2006.54ZM2846.3 2031.37 2725.46 2031.37C2725.44 2031.38 2725.43 2031.37 2725.42 2031.36 2725.41 2031.34 2725.42 2031.32 2725.44 2031.32 2739 2020.94 2741.55 2001.56 2731.14 1988.04 2730.32 1986.97 2729.43 1985.96 2728.48 1985.01L2847.11 1985.01C2859.97 1985.03 2870.37 1995.43 2870.36 2008.25 2870.36 2009.25 2870.29 2010.25 2870.16 2011.25 2868.36 2022.95 2858.18 2031.54 2846.3 2031.37Z" fill-rule="evenodd"/><path d="M2751 1836 2807 1836 2807 1843 2751 1843Z" fill="#1F4E79" fill-rule="evenodd"/><path d="M2718 1836 2738 1836 2738 1843 2718 1843Z" fill="#1F4E79" fill-rule="evenodd"/><path d="M2751 1935 2807 1935 2807 1942 2751 1942Z" fill-rule="evenodd"/><path d="M2718 1935 2738 1935 2738 1942 2718 1942Z" fill-rule="evenodd"/><path d="M2718 1869 2774 1869 2774 1876 2718 1876Z" fill-rule="evenodd"/><path d="M2787 1869 2807 1869 2807 1876 2787 1876Z" fill-rule="evenodd"/><path d="M2718 1902 2807 1902 2807 1909 2718 1909Z" fill-rule="evenodd"/><rect x="2681" y="1797" width="158" height="60.9999" fill="#FFFFFF"/><text font-family="Arial,Arial_MSFontService,sans-serif" font-weight="400" font-size="50" transform="matrix(1 0 0 1 2681.46 1846)">Ledger</text><rect x="2394.5" y="1619.5" width="838" height="479" stroke="#000000" stroke-width="4.58333" stroke-miterlimit="8" fill="none"/><text font-family="Arial,Arial_MSFontService,sans-serif" font-weight="400" font-size="73" transform="matrix(1 0 0 1 2426.81 1707)">Internal team B</text><path d="M1586.54 1683.35 1586.54 1591.73C1586.54 1590.64 1586.01 1589.63 1585.12 1589L1571.56 1579.46C1571.55 1579.45 1571.55 1579.43 1571.56 1579.41L1585.79 1562.27C1586.69 1561.19 1586.81 1559.64 1586.08 1558.43L1577.5 1544.06C1577.49 1544.05 1577.49 1544.03 1577.5 1544.02L1585.58 1535.9C1586.19 1535.27 1586.54 1534.43 1586.54 1533.55L1586.54 1518.58C1586.54 1501.14 1572.47 1487 1555.11 1487L1386.42 1487C1369.16 1486.94 1355.1 1500.94 1355 1518.29 1355.01 1527.88 1359.41 1536.94 1366.94 1542.83 1370.57 1545.42 1374.9 1546.82 1379.35 1546.86 1379.92 1546.86 1380.49 1546.81 1381.05 1546.76 1381.19 1546.8 1381.32 1546.82 1381.46 1546.84L1411.23 1546.84 1411.23 1634.95C1411.23 1635.83 1411.58 1636.67 1412.2 1637.3L1424.72 1649.88 1424.72 1649.93 1410.55 1664.18C1409.93 1664.8 1409.58 1665.65 1409.58 1666.53L1409.58 1711.41C1409.58 1728.86 1423.65 1743 1441 1743L1582.32 1743C1597.75 1743.19 1610.88 1731.71 1612.83 1716.32 1614.58 1699.93 1602.83 1685.2 1586.54 1683.35ZM1394.08 1540.19C1396.58 1537.31 1397.97 1533.63 1398 1529.81 1398.06 1520.76 1390.81 1513.38 1381.81 1513.32 1381.7 1513.32 1381.58 1513.32 1381.46 1513.32 1379.63 1513.32 1378.15 1514.81 1378.15 1516.65 1378.15 1518.49 1379.63 1519.97 1381.46 1519.97 1386.84 1519.88 1391.29 1524.18 1391.38 1529.59 1391.38 1529.67 1391.38 1529.74 1391.38 1529.81 1391.22 1533.62 1388.98 1537.03 1385.55 1538.67 1380.82 1541.07 1375.16 1540.61 1370.87 1537.49 1365.02 1532.86 1361.61 1525.78 1361.62 1518.29 1361.7 1504.52 1372.87 1493.42 1386.57 1493.5 1400.27 1493.58 1411.31 1504.81 1411.23 1518.58L1411.23 1540.19ZM1416.19 1711.41 1416.19 1667.91 1431.76 1652.26C1433.05 1650.96 1433.05 1648.86 1431.76 1647.56L1417.85 1633.57 1417.85 1518.58C1417.85 1508.86 1413.39 1499.68 1405.76 1493.71 1405.75 1493.69 1405.75 1493.67 1405.76 1493.66 1405.76 1493.65 1405.77 1493.65 1405.78 1493.65L1555.11 1493.65C1568.81 1493.65 1579.92 1504.81 1579.92 1518.58L1579.92 1532.17 1570.97 1541.17C1569.89 1542.25 1569.69 1543.92 1570.47 1545.23L1579.18 1559.83 1564.15 1577.96C1562.98 1579.37 1563.18 1581.47 1564.59 1582.64 1564.66 1582.7 1564.73 1582.76 1564.81 1582.81L1579.92 1593.46 1579.92 1683.15 1450.92 1683.19C1447.29 1682.96 1443.67 1683.74 1440.45 1685.44 1434.84 1688.22 1431.23 1693.9 1431.08 1700.19 1431.02 1709.23 1438.26 1716.62 1447.26 1716.68 1447.38 1716.68 1447.5 1716.68 1447.61 1716.67 1449.44 1716.67 1450.92 1715.18 1450.92 1713.35 1450.92 1711.51 1449.44 1710.02 1447.61 1710.02 1442.23 1710.12 1437.79 1705.81 1437.69 1700.4 1437.69 1700.33 1437.69 1700.26 1437.69 1700.19 1437.85 1696.38 1440.1 1692.97 1443.53 1691.33 1448.25 1688.93 1453.92 1689.38 1458.2 1692.5 1464.05 1697.14 1467.46 1704.22 1467.46 1711.71 1467.36 1725.39 1456.27 1736.41 1442.65 1736.35L1441 1736.35C1427.3 1736.35 1416.19 1725.18 1416.19 1711.41ZM1582.42 1736.35 1462.04 1736.35C1462.03 1736.35 1462.01 1736.35 1462 1736.33 1462 1736.31 1462.01 1736.3 1462.02 1736.29 1475.53 1725.87 1478.07 1706.41 1467.7 1692.84 1466.88 1691.77 1466 1690.76 1465.05 1689.8L1583.23 1689.8C1596.03 1689.82 1606.4 1700.26 1606.39 1713.13 1606.38 1714.14 1606.32 1715.14 1606.19 1716.14 1604.39 1727.9 1594.25 1736.52 1582.42 1736.35Z" fill-rule="evenodd"/><path d="M1487 1540 1543 1540 1543 1547 1487 1547Z" fill="#1F4E79" fill-rule="evenodd"/><path d="M1454 1540 1474 1540 1474 1547 1454 1547Z" fill="#1F4E79" fill-rule="evenodd"/><path d="M1487 1640 1543 1640 1543 1647 1487 1647Z" fill-rule="evenodd"/><path d="M1454 1640 1474 1640 1474 1647 1454 1647Z" fill-rule="evenodd"/><path d="M1454 1574 1510 1574 1510 1580 1454 1580Z" fill-rule="evenodd"/><path d="M1524 1574 1543 1574 1543 1580 1524 1580Z" fill-rule="evenodd"/><path d="M1454 1607 1543 1607 1543 1613 1454 1613Z" fill-rule="evenodd"/><rect x="1417" y="1502" width="158" height="61.0002" fill="#FFFFFF"/><text font-family="Arial,Arial_MSFontService,sans-serif" font-weight="400" font-size="50" transform="matrix(1 0 0 1 1417.69 1551)">Ledger</text><rect x="1130.5" y="1324.5" width="838" height="478" stroke="#000000" stroke-width="4.58333" stroke-miterlimit="8" fill="none"/><text font-family="Arial,Arial_MSFontService,sans-serif" font-weight="400" font-size="73" transform="matrix(1 0 0 1 1163.04 1411)">Public SCITT Service</text><path d="M5.22082-8.8933 386.433 214.898 375.992 232.684-5.22082 8.8933ZM387.981 191.89 425.679 249.895 356.656 245.25Z" transform="matrix(-1 0 0 1 2394.18 1313.5)"/><path d="M2388.3 1867.48 2004.98 1601.38 2016.74 1584.43 2400.06 1850.54ZM2001.69 1624.2 1968.5 1563.5 2036.97 1573.37Z"/></g></svg>